<svg width="123" height="18" viewBox="0 0 123 18" fill="none" xmlns="http://www.w3.org/2000/svg">
<path fill-rule="evenodd" clip-rule="evenodd" d="M0 9C4.97056 9 9 4.97056 9 0H0V9Z" fill="black"/>
<path d="M18 0H9V9L18 0Z" fill="black"/>
<path fill-rule="evenodd" clip-rule="evenodd" d="M18 9C13.0294 9 9 13.0294 9 18H18V9Z" fill="black"/>
<path d="M0 18H9V9L0 18Z" fill="black"/>
<path d="M38.9093 17.5H26.7185V14.742L35.0852 3.29282H26.9039V0.558H38.7702V3.20012L30.334 14.7652H38.9093V17.5ZM46.4445 17.8013C43.0376 17.8013 40.6504 15.3214 40.6504 11.7754C40.6504 8.18306 42.9912 5.70318 46.3518 5.70318C49.782 5.70318 51.9605 7.99765 51.9605 11.5668V12.4244L43.3389 12.4475C43.5475 14.4639 44.6136 15.4836 46.4909 15.4836C48.0437 15.4836 49.0635 14.8811 49.388 13.7918H52.0069C51.5202 16.2948 49.4343 17.8013 46.4445 17.8013ZM46.375 8.02082C44.7063 8.02082 43.6865 8.92471 43.4084 10.6398H49.1562C49.1562 9.06376 48.0669 8.02082 46.375 8.02082ZM56.1008 3.75635C55.1274 3.75635 54.3626 2.99153 54.3626 2.04129C54.3626 1.09106 55.1274 0.349412 56.1008 0.349412C57.0279 0.349412 57.7927 1.09106 57.7927 2.04129C57.7927 2.99153 57.0279 3.75635 56.1008 3.75635ZM54.687 17.5V6.05082H57.5146V17.5H54.687ZM64.7931 17.5H61.9655V8.41482H59.7638V6.05082H61.9655V2.48165H64.7931V6.05082H67.018V8.41482H64.7931V17.5ZM71.7656 17.5L68.0573 6.05082H71.0007L72.5072 10.9642C72.7622 11.8681 72.9939 12.8647 73.2025 13.9308C73.4111 12.8184 73.6197 12.0999 73.9905 10.9642L75.5665 6.05082H78.4404L79.97 10.9642C80.1091 11.4278 80.5726 13.1428 80.7117 13.9076C80.8971 13.0501 81.2679 11.6827 81.4765 10.9642L83.0061 6.05082H85.9959L82.0327 17.5H79.3906L77.8146 12.5402C77.3511 11.0338 77.0962 9.94447 77.0034 9.36506C76.8876 9.89812 76.679 10.7093 76.0996 12.5866L74.5236 17.5H71.7656ZM86.9337 11.7522C86.9337 8.18306 89.5062 5.72635 93.0522 5.72635C96.5982 5.72635 99.1708 8.18306 99.1708 11.7522C99.1708 15.3214 96.5982 17.7781 93.0522 17.7781C89.5062 17.7781 86.9337 15.3214 86.9337 11.7522ZM89.7612 11.7522C89.7612 13.8381 91.1054 15.2519 93.0522 15.2519C94.9991 15.2519 96.3433 13.8381 96.3433 11.7522C96.3433 9.66635 94.9991 8.25259 93.0522 8.25259C91.1054 8.25259 89.7612 9.66635 89.7612 11.7522ZM109.06 6.00447V8.62341H108.017C105.978 8.62341 104.703 9.71271 104.703 11.9376V17.5H101.876V6.074H104.541L104.703 7.74271C105.19 6.60706 106.279 5.84224 107.809 5.84224C108.203 5.84224 108.597 5.88859 109.06 6.00447ZM114.288 17.5H111.484V0.256706H114.288V10.8484L118.738 6.05082H122.284L117.927 10.5934L122.192 17.5H118.947L115.957 12.6793L114.288 14.4175V17.5Z" fill="black"/>
</svg>
